<?xml version="1.0" encoding="utf-8"?>
<!-- Generator: Adobe Illustrator 18.1.1, SVG Export Plug-In . SVG Version: 6.00 Build 0)  -->
<svg version="1.1" id="Layer_1" xmlns="http://www.w3.org/2000/svg" xmlns:xlink="http://www.w3.org/1999/xlink" x="0px" y="0px"
	 viewBox="-55 147 500 500" enable-background="new -55 147 500 500" xml:space="preserve">
<g>
	<path fill="#F05C4B" d="M433.6,396.9c0,131.8-106.8,238.6-238.6,238.6c-131.8,0-238.7-106.8-238.7-238.6
		c0-131.8,106.8-238.6,238.7-238.6C326.8,158.3,433.6,265.1,433.6,396.9z"/>
	<path fill="#6E6E71" d="M114.7,391.3c-0.2,0-0.4,0-0.7,0c0.1,0,0.2,0,0.2,0c0,0,0,0,0,0H114.7z"/>
	<path fill="#FFFFFF" d="M195,163.8c62.3,0,120.8,24.3,164.9,68.3c44,44,68.3,102.6,68.3,164.9c0,62.3-24.2,120.8-68.3,164.9
		c-44,44-102.6,68.3-164.9,68.3S74.1,605.9,30.1,561.8c-44-44-68.3-102.6-68.3-164.9c0-62.3,24.3-120.8,68.3-164.9
		C74.1,188,132.7,163.8,195,163.8 M195,149.9C58.6,149.9-52,260.5-52,396.9C-52,533.4,58.6,644,195,644s247-110.6,247-247
		C442,260.5,331.5,149.9,195,149.9L195,149.9z"/>
	<g>
		<path fill="#F9F7F7" d="M323.2,484.5l-34.9-51.6l-33.8-51.2l-1.9-2.9c-9.1-14.4-13.4-31.4-13.4-49.6c0,0,0-52,0-65.8
			s10.6-21.5,10.6-27.6c0-6.2-4.9-8.8-11.1-8.8H149c-6.2,0-11.2,2.8-11.2,8.9c0,6.2,10.8,14.3,10.8,27.9c0,13.6,0,65.4,0,65.4
			c0,18.2-5.2,35.2-14.2,49.6l-1.6,2.7l-33.4,51.4l-34.8,51.5c-4.1,6.4-6.4,14.3-6.4,22.4c0,19.8,11.5,36.9,44.7,36.9H285
			c33.2,0,44.7-17.1,44.7-36.9C329.6,498.8,327.3,490.9,323.2,484.5z M302.3,516.2c-3.1,3-8.2,4.9-17.3,4.9H102.8
			c-9.1,0-14.7-2.1-17.8-5.1c-1.9-1.8-4.2-4.8-4.2-9.3c0-3.5,1-7.1,2.8-9.9l34.6-51.3l0.1-0.1l0.1-0.1l33.3-51.3l2.1-3.5
			c11.1-17.8,17.5-39,17.5-61.4v-52.6c0-4.3,0.1-12.7-0.7-15.7c-3.4-12.8,0.8-11.2,7-11.2h33.2c6.2,0,9.7-1.4,6.4,11.1
			c-0.7,2.8-0.7,11.1-0.7,15.8v52.6c0,22.1,5.5,43.3,16.9,61.5c0.9,1.5,2.3,3.5,2.3,3.5l33.8,51l0.1,0.1l0.1,0.1l34.6,51.3
			c1.8,2.8,2.8,6.4,2.8,9.9C307,511.1,304.2,514.4,302.3,516.2z"/>
		<path fill="#F9F7F7" d="M289.5,494.9l-9.2-14l-8.4-12.9l-28.6-43.7l-0.8-1.2c-0.2-0.3-0.5-0.6-0.7-0.8l-0.1-0.1l-9.3-14.1H155
			l-8.3,12.7l0,0l-0.1,0.1c-0.1,0.2-0.4,0.4-0.5,0.6l-30.3,46.5l-10.7,16.4l-0.4,0.6l-0.3,0.4l-0.4,0.6l-5.9,9.1
			c-1.1,1.5-1.6,3.4-1.6,5.4c0,5.3,4.3,9.5,9.5,9.5h0.1h11h21.1h111.1h21.1h11h0.1c5.3,0,9.5-4.3,9.5-9.5c0-1.8-0.4-3.5-1.3-4.9
			C289.7,495.2,289.7,495.1,289.5,494.9z M146.3,421.5c-0.1,0.1-0.3,0.4-0.5,0.8l0.1-0.1C146.1,421.8,146.2,421.5,146.3,421.5
			L146.3,421.5z M226.5,446c-1.1-1.1-1.6-2.5-1.6-4s0.6-3,1.6-4c1.1-1.1,2.5-1.6,4-1.6c1.5,0,3,0.6,4,1.6c1.1,1.1,1.6,2.5,1.6,4
			s-0.6,3-1.6,4c-1.1,1.1-2.5,1.6-4,1.6C229,447.6,227.5,447,226.5,446z M251.9,486.1l-16.6-25.4c-1.7-2.6-1-6.2,1.6-7.8
			c1-0.6,2.1-0.9,3.1-0.9c1.8,0,3.6,0.9,4.6,2.5l16.6,25.4c1.7,2.6,1,6.2-1.6,7.8c-1,0.6-2.1,0.9-3,0.9
			C254.8,488.6,253,487.7,251.9,486.1z"/>
		<path fill="#F9F7F7" d="M146.2,421.5C146,421.8,143.7,425.3,146.2,421.5L146.2,421.5z"/>
	</g>
</g>
</svg>
