<?xml version="1.0" encoding="utf-8"?>
<!-- Generator: Adobe Illustrator 16.0.4, SVG Export Plug-In . SVG Version: 6.00 Build 0)  -->
<!DOCTYPE svg PUBLIC "-//W3C//DTD SVG 1.1//EN" "http://www.w3.org/Graphics/SVG/1.1/DTD/svg11.dtd">
<svg version="1.1" id="Layer_1" xmlns="http://www.w3.org/2000/svg" xmlns:xlink="http://www.w3.org/1999/xlink" x="0px" y="0px"
	 width="500px" height="500px" viewBox="0 0 500 500" enable-background="new 0 0 500 500" xml:space="preserve">
<g>
	<path fill="#6EBBDA" d="M489.845,250c0,132.458-107.382,239.85-239.85,239.85C117.537,489.85,10.155,382.458,10.155,250
		c0-132.469,107.381-239.85,239.839-239.85C382.463,10.15,489.845,117.531,489.845,250z"/>
	<path fill="#F49398" d="M319.578,255.854c0,0,0,0-0.016,0.011v-0.011H319.578z"/>
	<path fill="#6E6E71" d="M169.696,244.315c-0.201,0-0.443,0-0.691,0.021c0.063-0.021,0.158-0.021,0.232-0.021c0,0,0.016,0,0.032,0
		H169.696z"/>
	<g>
		<path fill="#FFFFFF" d="M322.463,234.222l-4.082,10.378l-2.1,5.348l-2.119,5.39h-0.011v0.011l-0.073,0.211l-0.111,0.273
			l-0.068,0.169l-0.169,0.422l-0.19,0.517l-0.242,0.58l-0.258,0.665l-54.865,139.608c-2.463,5.991-6.713,14.26-7.204,12.488
			c-0.533-1.867-0.976-8.701-0.976-15.156V232.323c0,6.466,5.294,11.76,11.754,11.76c0,0,3.897,0.011,9.444,0.042
			c2.242,0.011,4.462,0.021,6.692,0.043c1.039,0,2.083,0,3.116,0.01c1.055,0.011,2.131,0.011,3.186,0.032
			c1.635,0,3.26,0.021,4.873,0.042c6.455,0.021,12.846,0.116,19.164,0.2c3.406,0.042,3.406,0.042,3.406,0.042
			C315.217,244.558,320.005,239.97,322.463,234.222z"/>
		<path fill="#FFFFFF" d="M457.895,249.842c-0.189-0.021-0.4-0.031-0.633-0.042c-0.11-0.021-0.232-0.032-0.354-0.032
			c-0.627-0.042-1.334-0.105-2.167-0.168c-3.069-0.18-7.567-0.518-13.289-0.823c-5.737-0.327-12.688-0.749-20.667-1.086
			c-7.979-0.38-16.975-0.802-26.794-1.118c-4.915-0.189-10.02-0.369-15.304-0.559c-5.305-0.169-10.779-0.296-16.4-0.454
			c-1.951-0.053-3.912-0.105-5.9-0.158c-0.555-0.021-0.648-0.021-0.648-0.021c-0.08,0-0.148,0-0.211-0.011
			c-6.365-0.264-11.549-5.643-11.549-12.034v28.36c0,6.466,4.982,9.988,11.079,7.815l5.458-1.93l0.074-0.021l1.286-0.443
			c3.29-1.107,8.49-2.721,12.413-3.85c4.061-1.16,17.023-3.501,24.164-4.598l2.02-0.307l49.006-6.992
			C454.709,250.602,458.274,249.947,457.895,249.842z"/>
		<path fill="#FFFFFF" d="M185.838,244.558l-2.12,5.39l-2.088,5.326l-4.082,10.378l-13.353,33.961l-3.876,9.883
			c-2.368,6.012-4.303,5.653-4.303-0.812v-67.046c0,1.908,5.079,3.343,11.291,3.206c0.237,0,0.485-0.021,0.728-0.021
			c1.688-0.021,3.37-0.063,5.073-0.084c0.359,0,0.717,0,1.086,0c0.422-0.021,0.791-0.021,1.097-0.021
			c0.243-0.011,0.464-0.011,0.654-0.011h0.185c0.269-0.01,0.479-0.01,0.648-0.01c0.116-0.011,0.216-0.011,0.327-0.011h0.189
			c0,0,0,0,0.011,0C180.122,244.643,182.959,244.59,185.838,244.558z"/>
	</g>
	<g>
		<path fill="#18182F" d="M144.948,230.361l-5.558,1.962l-0.78,0.264c-3.217,1.097-8.78,2.827-12.899,4.019
			c-4.166,1.191-17.661,3.628-24.68,4.693l-50.446,7.214c-5.532,0.812-9.213,1.487-8.39,1.529c0,0,0,0,0.1,0.021
			c0.053,0,0.095,0.011,0.143,0.011c0.153,0.01,0.322,0.031,0.506,0.031c0.185,0.021,0.358,0.021,0.543,0.042
			c0.522,0.032,1.124,0.085,1.772,0.127c3.074,0.189,7.573,0.527,13.289,0.833c5.732,0.306,12.688,0.728,20.661,1.076
			c7.984,0.369,16.98,0.791,26.8,1.117c4.915,0.169,10.02,0.359,15.304,0.56c5.305,0.189,10.779,0.284,16.39,0.442
			c1.993,0.053,4.019,0.105,6.075,0.148c0.221,0.021,0.464,0.031,0.696,0.031c6.36,0.285,11.543,5.664,11.543,12.055v-28.339
			C156.017,231.732,151.044,228.221,144.948,230.361z"/>
		<path fill="#18182F" d="M245.702,92.197l-3.871,9.883l-54.875,139.619l-0.248,0.665l-0.237,0.58l-0.2,0.527l-0.164,0.411
			l-0.068,0.169l-0.111,0.284l-0.079,0.201v0.021h-0.011l-2.12,5.39l-2.088,5.326l-4.082,10.378
			c2.458-5.748,7.23-10.336,10.821-10.283c0,0,0,0,1.825,0.032c0.527,0.01,1.06,0.01,1.587,0.01
			c6.312,0.085,12.709,0.148,19.164,0.222c9.023,0.085,18.146,0.127,27.301,0.147c6.465,0.011,11.749,5.316,11.749,11.781V104.748
			V93.01C249.995,86.545,248.064,86.186,245.702,92.197z"/>
		<path fill="#18182F" d="M343.979,191.212v67.036c0-1.898-5.074-3.333-11.285-3.196c-0.232,0-0.486,0.011-0.738,0.011
			c-1.678,0.031-3.365,0.053-5.058,0.084c-4.203,0.063-8.448,0.127-12.735,0.19l2.119-5.39l2.1-5.348l4.082-10.378l13.347-33.95
			l3.876-9.883C342.043,184.367,343.979,184.736,343.979,191.212z"/>
	</g>
	<path fill="#6E6E71" d="M364.428,245.054c0.322,0,0.628,0.011,0.929,0.021c-0.591-0.01-0.718-0.01-0.718-0.01
		C364.565,245.064,364.508,245.064,364.428,245.054z"/>
	<path fill="#18182F" d="M249.995,16.819c62.291,0,120.851,24.258,164.89,68.291c44.043,44.044,68.301,102.6,68.301,164.89
		s-24.258,120.846-68.301,164.89c-44.039,44.033-102.6,68.302-164.89,68.302c-62.279,0-120.846-24.269-164.879-68.302
		C41.061,370.846,16.814,312.29,16.814,250S41.061,129.154,85.115,85.11C129.148,41.077,187.715,16.819,249.995,16.819
		 M249.995,2.95C113.561,2.95,2.955,113.555,2.955,250c0,136.435,110.605,247.05,247.04,247.05
		c136.445,0,247.05-110.615,247.05-247.05C497.045,113.555,386.439,2.95,249.995,2.95L249.995,2.95z"/>
</g>
</svg>
