<?xml version="1.0" encoding="utf-8"?>
<!-- Generator: Adobe Illustrator 16.0.4, SVG Export Plug-In . SVG Version: 6.00 Build 0)  -->
<!DOCTYPE svg PUBLIC "-//W3C//DTD SVG 1.1//EN" "http://www.w3.org/Graphics/SVG/1.1/DTD/svg11.dtd">
<svg version="1.1" id="Layer_1" xmlns="http://www.w3.org/2000/svg" xmlns:xlink="http://www.w3.org/1999/xlink" x="0px" y="0px"
	 width="500px" height="500px" viewBox="0 0 500 500" enable-background="new 0 0 500 500" xml:space="preserve">
<g>
	<path fill="#F05C4B" d="M488.645,249.933c0,131.801-106.833,238.646-238.64,238.646c-131.806,0-238.651-106.845-238.651-238.646
		c0-131.806,106.846-238.65,238.651-238.65C381.812,11.283,488.645,118.127,488.645,249.933z"/>
	<path fill="#6E6E71" d="M169.701,244.253c-0.2,0-0.443,0-0.696,0.016c0.063-0.016,0.158-0.016,0.232-0.016c0,0,0.021,0,0.031,0
		H169.701z"/>
	<g>
		<path fill="#FFFFFF" d="M322.462,234.155l-4.081,10.378l-2.1,5.347l-2.119,5.39h-0.011v0.011l-0.074,0.216l-0.105,0.27
			l-0.073,0.174l-0.169,0.416l-0.19,0.512l-0.242,0.586l-0.253,0.664l-54.865,139.609c-2.468,5.99-6.708,14.254-7.203,12.487
			c-0.527-1.872-0.971-8.696-0.971-15.156V232.256c0,6.465,5.284,11.76,11.749,11.76c0,0,3.893,0.01,9.439,0.037
			c2.247,0.016,4.462,0.021,6.697,0.042c1.034,0,2.078,0,3.111,0.016c1.055,0.005,2.131,0.005,3.186,0.026
			c1.635,0.005,3.259,0.021,4.873,0.053c6.454,0.021,12.846,0.105,19.163,0.19c3.407,0.042,3.407,0.042,3.407,0.042
			C315.217,244.491,320.005,239.908,322.462,234.155z"/>
		<path fill="#FFFFFF" d="M457.895,249.774c-0.18-0.026-0.4-0.031-0.622-0.047c-0.116-0.016-0.243-0.026-0.358-0.026
			c-0.633-0.042-1.34-0.111-2.173-0.168c-3.069-0.185-7.562-0.517-13.289-0.828c-5.737-0.322-12.688-0.744-20.661-1.086
			c-7.984-0.369-16.98-0.791-26.8-1.113c-4.904-0.189-10.02-0.374-15.304-0.559c-5.305-0.164-10.779-0.301-16.39-0.459
			c-1.951-0.047-3.924-0.105-5.906-0.153c-0.56-0.016-0.654-0.016-0.654-0.016c-0.073,0-0.137,0-0.2-0.016
			c-6.37-0.264-11.56-5.648-11.56-12.034v28.36c0,6.461,4.989,9.982,11.085,7.815l5.463-1.93l0.063-0.021l1.287-0.442
			c3.29-1.107,8.49-2.722,12.413-3.85c4.061-1.166,17.023-3.502,24.163-4.604l2.025-0.301l49.001-6.998
			C454.709,250.534,458.274,249.885,457.895,249.774z"/>
		<path fill="#FFFFFF" d="M185.838,244.491l-2.12,5.389l-2.077,5.321l-4.082,10.378l-13.363,33.966l-3.87,9.877
			c-2.373,6.018-4.304,5.654-4.304-0.807v-67.041c0,1.898,5.073,3.338,11.296,3.201c0.232,0,0.475-0.021,0.728-0.021
			c1.688-0.021,3.365-0.058,5.062-0.079c0.369,0,0.729-0.005,1.087-0.005c0.422-0.016,0.791-0.016,1.097-0.016
			c0.253-0.016,0.475-0.016,0.654-0.016h0.189c0.274-0.005,0.475-0.005,0.644-0.005c0.116-0.016,0.222-0.016,0.337-0.016h0.18
			c0,0,0,0,0.011,0C180.132,244.575,182.969,244.522,185.838,244.491z"/>
	</g>
	<g>
		<path fill="#D6D9DA" d="M144.947,230.294l-5.547,1.962l-0.791,0.269c-3.217,1.091-8.775,2.821-12.899,4.013
			c-4.166,1.192-17.655,3.628-24.68,4.693l-50.445,7.214c-5.526,0.812-9.208,1.482-8.385,1.529c0,0,0,0,0.095,0.021
			c0.053,0,0.095,0.011,0.147,0.011c0.147,0.016,0.316,0.026,0.507,0.037c0.189,0.016,0.358,0.021,0.537,0.037
			c0.527,0.032,1.129,0.084,1.772,0.126c3.079,0.19,7.572,0.527,13.289,0.828c5.737,0.316,12.688,0.728,20.661,1.081
			c7.984,0.369,16.98,0.791,26.8,1.112c4.915,0.174,10.02,0.359,15.313,0.564c5.295,0.189,10.779,0.285,16.391,0.443
			c1.993,0.053,4.008,0.11,6.064,0.152c0.231,0.016,0.464,0.026,0.695,0.026c6.36,0.28,11.549,5.664,11.549,12.061v-28.35
			C156.021,231.666,151.044,228.148,144.947,230.294z"/>
		<path fill="#D6D9DA" d="M245.702,92.125l-3.871,9.888l-54.875,139.62l-0.243,0.665l-0.242,0.585l-0.2,0.522l-0.158,0.411
			l-0.074,0.174l-0.105,0.279l-0.084,0.206v0.016h-0.011l-2.12,5.389l-2.077,5.321l-4.082,10.378
			c2.447-5.743,7.225-10.331,10.821-10.278c0,0,0,0,1.813,0.032c0.527,0.011,1.065,0.011,1.593,0.011
			c6.308,0.078,12.709,0.152,19.164,0.216c9.018,0.095,18.141,0.138,27.306,0.158c6.455,0.005,11.749,5.311,11.749,11.771V104.687
			V92.942C250.005,86.482,248.064,86.124,245.702,92.125z"/>
		<path fill="#D6D9DA" d="M343.978,191.139v67.037c0-1.894-5.073-3.328-11.285-3.186c-0.231,0-0.485,0.005-0.728,0.005
			c-1.688,0.026-3.375,0.058-5.062,0.085c-4.208,0.058-8.448,0.131-12.74,0.189l2.119-5.39l2.1-5.347l4.081-10.378l13.353-33.951
			l3.871-9.888C342.048,184.3,343.978,184.669,343.978,191.139z"/>
	</g>
	<path fill="#FFFFFF" d="M250.005,16.752c62.29,0,120.847,24.258,164.89,68.291c44.044,44.044,68.291,102.6,68.291,164.89
		c0,62.284-24.247,120.847-68.291,164.885c-44.043,44.044-102.6,68.302-164.89,68.302s-120.856-24.258-164.89-68.302
		c-44.044-44.038-68.302-102.601-68.302-164.885c0-62.29,24.258-120.846,68.302-164.89C129.148,41.01,187.715,16.752,250.005,16.752
		 M250.005,2.883c-136.444,0-247.05,110.605-247.05,247.05c0,136.44,110.605,247.045,247.05,247.045
		c136.445,0,247.04-110.604,247.04-247.045C497.045,113.488,386.45,2.883,250.005,2.883L250.005,2.883z"/>
</g>
</svg>
